<svg xmlns="http://www.w3.org/2000/svg" width="37" height="37" viewBox="0 0 37 37" fill="none">
  <path d="M11.1929 3.08325H25.7925C26.7946 3.08325 27.6888 3.11413 28.4904 3.22204C32.7608 3.69996 33.9171 5.7041 33.9171 11.1924V20.9358C33.9171 26.4241 32.7608 28.4283 28.4904 28.9062C27.6888 29.0141 26.81 29.045 25.7925 29.045H11.1929C10.1908 29.045 9.29668 29.0141 8.49501 28.9062C4.22459 28.4283 3.06836 26.4241 3.06836 20.9358V11.1924C3.06836 5.7041 4.22459 3.69996 8.49501 3.22204C9.29668 3.11413 10.1908 3.08325 11.1929 3.08325Z" stroke="#141515" stroke-width="2" stroke-linecap="round" stroke-linejoin="round"/>
  <path d="M20.9365 12.8267H26.6098" stroke="#141515" stroke-width="2" stroke-linecap="round" stroke-linejoin="round"/>
  <path d="M10.3916 21.7529H10.4224H26.6254" stroke="#141515" stroke-width="2" stroke-linecap="round" stroke-linejoin="round"/>
  <path d="M10.792 33.9167H26.2087" stroke="#141515" stroke-width="2" stroke-linecap="round" stroke-linejoin="round"/>
  <path d="M11.0915 12.7957H11.1053" stroke="#141515" stroke-width="2" stroke-linecap="round" stroke-linejoin="round"/>
  <path d="M16.1794 12.7957H16.1932" stroke="#141515" stroke-width="2" stroke-linecap="round" stroke-linejoin="round"/>
</svg>